<mxfile host="app.diagrams.net" agent="Mozilla/5.0 (X11; Linux x86_64) AppleWebKit/537.36 (KHTML, like Gecko) Chrome/126.0.0.0 Safari/537.36" version="24.7.16">
  <diagram name="PÃ¡gina-1" id="h7e021uoW_l_kCpMdxr3">
    <mxGraphModel dx="794" dy="724" grid="1" gridSize="10" guides="1" tooltips="1" connect="1" arrows="1" fold="1" page="1" pageScale="1" pageWidth="827" pageHeight="1169" math="0" shadow="0">
      <root>
        <mxCell id="0" />
        <mxCell id="1" parent="0" />
        <mxCell id="UPSDLzvtTg_jJF_L42Ob-2" value="persona" style="whiteSpace=wrap;html=1;" vertex="1" parent="1">
          <mxGeometry x="590" y="410" width="100" height="40" as="geometry" />
        </mxCell>
        <mxCell id="UPSDLzvtTg_jJF_L42Ob-3" value="vivienda" style="whiteSpace=wrap;html=1;" vertex="1" parent="1">
          <mxGeometry x="190" y="410" width="100" height="40" as="geometry" />
        </mxCell>
        <mxCell id="UPSDLzvtTg_jJF_L42Ob-4" value="Municipios" style="whiteSpace=wrap;html=1;" vertex="1" parent="1">
          <mxGeometry x="90" y="130" width="100" height="40" as="geometry" />
        </mxCell>
        <mxCell id="UPSDLzvtTg_jJF_L42Ob-8" value="tiene" style="rhombus;whiteSpace=wrap;html=1;" vertex="1" parent="1">
          <mxGeometry x="105" y="260" width="70" height="50" as="geometry" />
        </mxCell>
        <mxCell id="UPSDLzvtTg_jJF_L42Ob-9" value="1,1" style="text;html=1;align=center;verticalAlign=middle;resizable=0;points=[];autosize=1;strokeColor=none;fillColor=none;" vertex="1" parent="1">
          <mxGeometry x="90" y="180" width="40" height="30" as="geometry" />
        </mxCell>
        <mxCell id="UPSDLzvtTg_jJF_L42Ob-12" value="vive" style="rhombus;whiteSpace=wrap;html=1;" vertex="1" parent="1">
          <mxGeometry x="392.5" y="405" width="70" height="50" as="geometry" />
        </mxCell>
        <mxCell id="UPSDLzvtTg_jJF_L42Ob-13" value="es propiedad" style="rhombus;whiteSpace=wrap;html=1;" vertex="1" parent="1">
          <mxGeometry x="390" y="530" width="75" height="55" as="geometry" />
        </mxCell>
        <mxCell id="UPSDLzvtTg_jJF_L42Ob-15" value="" style="endArrow=none;html=1;rounded=0;exitX=0.5;exitY=1;exitDx=0;exitDy=0;entryX=0.5;entryY=0;entryDx=0;entryDy=0;" edge="1" parent="1" source="UPSDLzvtTg_jJF_L42Ob-4" target="UPSDLzvtTg_jJF_L42Ob-8">
          <mxGeometry width="50" height="50" relative="1" as="geometry">
            <mxPoint x="140" y="250" as="sourcePoint" />
            <mxPoint x="190" y="200" as="targetPoint" />
          </mxGeometry>
        </mxCell>
        <mxCell id="UPSDLzvtTg_jJF_L42Ob-17" value="" style="endArrow=classic;html=1;rounded=0;exitX=0.5;exitY=1;exitDx=0;exitDy=0;entryX=0;entryY=0.5;entryDx=0;entryDy=0;" edge="1" parent="1" source="UPSDLzvtTg_jJF_L42Ob-8" target="UPSDLzvtTg_jJF_L42Ob-3">
          <mxGeometry width="50" height="50" relative="1" as="geometry">
            <mxPoint x="160" y="370" as="sourcePoint" />
            <mxPoint x="210" y="320" as="targetPoint" />
            <Array as="points">
              <mxPoint x="140" y="430" />
            </Array>
          </mxGeometry>
        </mxCell>
        <mxCell id="UPSDLzvtTg_jJF_L42Ob-21" value="" style="endArrow=none;html=1;rounded=0;entryX=0;entryY=0.5;entryDx=0;entryDy=0;exitX=1;exitY=0.5;exitDx=0;exitDy=0;" edge="1" parent="1" source="UPSDLzvtTg_jJF_L42Ob-12" target="UPSDLzvtTg_jJF_L42Ob-2">
          <mxGeometry width="50" height="50" relative="1" as="geometry">
            <mxPoint x="510" y="480" as="sourcePoint" />
            <mxPoint x="560" y="430" as="targetPoint" />
          </mxGeometry>
        </mxCell>
        <mxCell id="UPSDLzvtTg_jJF_L42Ob-22" value="" style="endArrow=classic;html=1;rounded=0;exitX=0;exitY=0.5;exitDx=0;exitDy=0;entryX=1;entryY=0.5;entryDx=0;entryDy=0;" edge="1" parent="1" source="UPSDLzvtTg_jJF_L42Ob-12" target="UPSDLzvtTg_jJF_L42Ob-3">
          <mxGeometry width="50" height="50" relative="1" as="geometry">
            <mxPoint x="320" y="430" as="sourcePoint" />
            <mxPoint x="370" y="380" as="targetPoint" />
          </mxGeometry>
        </mxCell>
        <mxCell id="UPSDLzvtTg_jJF_L42Ob-33" value="Cod municipo" style="text;html=1;align=center;verticalAlign=middle;resizable=0;points=[];autosize=1;strokeColor=none;fillColor=none;" vertex="1" parent="1">
          <mxGeometry x="5" y="50" width="100" height="30" as="geometry" />
        </mxCell>
        <mxCell id="UPSDLzvtTg_jJF_L42Ob-34" value="nombre" style="text;html=1;align=center;verticalAlign=middle;resizable=0;points=[];autosize=1;strokeColor=none;fillColor=none;" vertex="1" parent="1">
          <mxGeometry x="160" y="50" width="60" height="30" as="geometry" />
        </mxCell>
        <mxCell id="UPSDLzvtTg_jJF_L42Ob-35" value="" style="ellipse;whiteSpace=wrap;html=1;aspect=fixed;fillColor=#000000;" vertex="1" parent="1">
          <mxGeometry x="35" y="70" width="40" height="40" as="geometry" />
        </mxCell>
        <mxCell id="UPSDLzvtTg_jJF_L42Ob-36" value="" style="ellipse;whiteSpace=wrap;html=1;aspect=fixed;" vertex="1" parent="1">
          <mxGeometry x="170" y="70" width="40" height="40" as="geometry" />
        </mxCell>
        <mxCell id="UPSDLzvtTg_jJF_L42Ob-38" value="" style="endArrow=none;html=1;rounded=0;exitX=1;exitY=1;exitDx=0;exitDy=0;entryX=0.12;entryY=-0.025;entryDx=0;entryDy=0;entryPerimeter=0;" edge="1" parent="1" source="UPSDLzvtTg_jJF_L42Ob-35" target="UPSDLzvtTg_jJF_L42Ob-4">
          <mxGeometry width="50" height="50" relative="1" as="geometry">
            <mxPoint x="60" y="120" as="sourcePoint" />
            <mxPoint x="110" y="120" as="targetPoint" />
          </mxGeometry>
        </mxCell>
        <mxCell id="UPSDLzvtTg_jJF_L42Ob-39" value="" style="endArrow=none;html=1;rounded=0;exitX=0.5;exitY=0;exitDx=0;exitDy=0;entryX=0.325;entryY=1.05;entryDx=0;entryDy=0;entryPerimeter=0;" edge="1" parent="1" source="UPSDLzvtTg_jJF_L42Ob-4" target="UPSDLzvtTg_jJF_L42Ob-36">
          <mxGeometry width="50" height="50" relative="1" as="geometry">
            <mxPoint x="120" y="110" as="sourcePoint" />
            <mxPoint x="170" y="60" as="targetPoint" />
          </mxGeometry>
        </mxCell>
        <mxCell id="UPSDLzvtTg_jJF_L42Ob-40" value="codigo postol" style="text;html=1;align=center;verticalAlign=middle;resizable=0;points=[];autosize=1;strokeColor=none;fillColor=none;" vertex="1" parent="1">
          <mxGeometry x="240" y="60" width="90" height="30" as="geometry" />
        </mxCell>
        <mxCell id="UPSDLzvtTg_jJF_L42Ob-41" value="" style="ellipse;whiteSpace=wrap;html=1;aspect=fixed;" vertex="1" parent="1">
          <mxGeometry x="260" y="80" width="40" height="40" as="geometry" />
        </mxCell>
        <mxCell id="UPSDLzvtTg_jJF_L42Ob-42" value="" style="endArrow=none;html=1;rounded=0;entryX=0;entryY=0.5;entryDx=0;entryDy=0;exitX=1;exitY=0.25;exitDx=0;exitDy=0;" edge="1" parent="1" source="UPSDLzvtTg_jJF_L42Ob-4" target="UPSDLzvtTg_jJF_L42Ob-41">
          <mxGeometry width="50" height="50" relative="1" as="geometry">
            <mxPoint x="210" y="170" as="sourcePoint" />
            <mxPoint x="260" y="120" as="targetPoint" />
          </mxGeometry>
        </mxCell>
        <mxCell id="UPSDLzvtTg_jJF_L42Ob-43" value="" style="endArrow=none;html=1;rounded=0;entryX=0;entryY=0.5;entryDx=0;entryDy=0;exitX=0.5;exitY=1;exitDx=0;exitDy=0;" edge="1" parent="1" source="UPSDLzvtTg_jJF_L42Ob-3" target="UPSDLzvtTg_jJF_L42Ob-13">
          <mxGeometry width="50" height="50" relative="1" as="geometry">
            <mxPoint x="250" y="620" as="sourcePoint" />
            <mxPoint x="300" y="570" as="targetPoint" />
            <Array as="points">
              <mxPoint x="240" y="558" />
            </Array>
          </mxGeometry>
        </mxCell>
        <mxCell id="UPSDLzvtTg_jJF_L42Ob-44" value="" style="endArrow=none;html=1;rounded=0;exitX=1;exitY=0.5;exitDx=0;exitDy=0;entryX=0.5;entryY=1;entryDx=0;entryDy=0;" edge="1" parent="1" source="UPSDLzvtTg_jJF_L42Ob-13" target="UPSDLzvtTg_jJF_L42Ob-2">
          <mxGeometry width="50" height="50" relative="1" as="geometry">
            <mxPoint x="470" y="580" as="sourcePoint" />
            <mxPoint x="520" y="530" as="targetPoint" />
            <Array as="points">
              <mxPoint x="640" y="558" />
            </Array>
          </mxGeometry>
        </mxCell>
        <mxCell id="UPSDLzvtTg_jJF_L42Ob-45" value="0,n" style="text;html=1;align=center;verticalAlign=middle;resizable=0;points=[];autosize=1;strokeColor=none;fillColor=none;" vertex="1" parent="1">
          <mxGeometry x="560" y="398" width="40" height="30" as="geometry" />
        </mxCell>
        <mxCell id="UPSDLzvtTg_jJF_L42Ob-46" value="1,n" style="text;html=1;align=center;verticalAlign=middle;resizable=0;points=[];autosize=1;strokeColor=none;fillColor=none;" vertex="1" parent="1">
          <mxGeometry x="352.5" y="390" width="40" height="30" as="geometry" />
        </mxCell>
        <mxCell id="UPSDLzvtTg_jJF_L42Ob-47" value="0,0" style="text;html=1;align=center;verticalAlign=middle;resizable=0;points=[];autosize=1;strokeColor=none;fillColor=none;" vertex="1" parent="1">
          <mxGeometry x="240" y="450" width="40" height="30" as="geometry" />
        </mxCell>
        <mxCell id="UPSDLzvtTg_jJF_L42Ob-48" value="1,n" style="text;html=1;align=center;verticalAlign=middle;resizable=0;points=[];autosize=1;strokeColor=none;fillColor=none;" vertex="1" parent="1">
          <mxGeometry x="600" y="450" width="40" height="30" as="geometry" />
        </mxCell>
        <mxCell id="UPSDLzvtTg_jJF_L42Ob-49" value="M,N" style="text;html=1;align=center;verticalAlign=middle;resizable=0;points=[];autosize=1;strokeColor=none;fillColor=none;" vertex="1" parent="1">
          <mxGeometry x="385" y="498" width="50" height="30" as="geometry" />
        </mxCell>
        <mxCell id="UPSDLzvtTg_jJF_L42Ob-50" value="" style="endArrow=classic;html=1;rounded=0;exitX=0.5;exitY=0;exitDx=0;exitDy=0;" edge="1" parent="1" source="UPSDLzvtTg_jJF_L42Ob-12">
          <mxGeometry width="50" height="50" relative="1" as="geometry">
            <mxPoint x="410" y="400" as="sourcePoint" />
            <mxPoint x="428" y="330" as="targetPoint" />
          </mxGeometry>
        </mxCell>
        <mxCell id="UPSDLzvtTg_jJF_L42Ob-51" value="Cabeza de amilia" style="rhombus;whiteSpace=wrap;html=1;" vertex="1" parent="1">
          <mxGeometry x="385" y="270" width="87.5" height="60" as="geometry" />
        </mxCell>
        <mxCell id="UPSDLzvtTg_jJF_L42Ob-52" value="" style="endArrow=none;html=1;rounded=0;entryX=0;entryY=0.5;entryDx=0;entryDy=0;exitX=0.5;exitY=0;exitDx=0;exitDy=0;" edge="1" parent="1" source="UPSDLzvtTg_jJF_L42Ob-3" target="UPSDLzvtTg_jJF_L42Ob-51">
          <mxGeometry width="50" height="50" relative="1" as="geometry">
            <mxPoint x="310" y="340" as="sourcePoint" />
            <mxPoint x="360" y="290" as="targetPoint" />
            <Array as="points">
              <mxPoint x="240" y="300" />
            </Array>
          </mxGeometry>
        </mxCell>
        <mxCell id="UPSDLzvtTg_jJF_L42Ob-53" value="" style="endArrow=none;html=1;rounded=0;entryX=0.5;entryY=0;entryDx=0;entryDy=0;exitX=1;exitY=0.5;exitDx=0;exitDy=0;" edge="1" parent="1" source="UPSDLzvtTg_jJF_L42Ob-51" target="UPSDLzvtTg_jJF_L42Ob-2">
          <mxGeometry width="50" height="50" relative="1" as="geometry">
            <mxPoint x="507.5" y="370" as="sourcePoint" />
            <mxPoint x="652.5" y="260" as="targetPoint" />
            <Array as="points">
              <mxPoint x="640" y="300" />
            </Array>
          </mxGeometry>
        </mxCell>
        <mxCell id="UPSDLzvtTg_jJF_L42Ob-55" value="1,1" style="text;html=1;align=center;verticalAlign=middle;resizable=0;points=[];autosize=1;strokeColor=none;fillColor=none;" vertex="1" parent="1">
          <mxGeometry x="650" y="378" width="40" height="30" as="geometry" />
        </mxCell>
        <mxCell id="UPSDLzvtTg_jJF_L42Ob-56" value="1,1" style="text;html=1;align=center;verticalAlign=middle;resizable=0;points=[];autosize=1;strokeColor=none;fillColor=none;" vertex="1" parent="1">
          <mxGeometry x="410" y="238" width="40" height="30" as="geometry" />
        </mxCell>
        <mxCell id="UPSDLzvtTg_jJF_L42Ob-57" value="1,1" style="text;html=1;align=center;verticalAlign=middle;resizable=0;points=[];autosize=1;strokeColor=none;fillColor=none;" vertex="1" parent="1">
          <mxGeometry x="240" y="380" width="40" height="30" as="geometry" />
        </mxCell>
      </root>
    </mxGraphModel>
  </diagram>
</mxfile>
